<?xml version="1.0" encoding="UTF-8" standalone="no"?>
<!-- Generator: Adobe Illustrator 16.0.0, SVG Export Plug-In . SVG Version: 6.00 Build 0)  -->

<svg
   xmlns:dc="http://purl.org/dc/elements/1.1/"
   xmlns:cc="http://creativecommons.org/ns#"
   xmlns:rdf="http://www.w3.org/1999/02/22-rdf-syntax-ns#"
   xmlns:svg="http://www.w3.org/2000/svg"
   xmlns="http://www.w3.org/2000/svg"
   xmlns:sodipodi="http://sodipodi.sourceforge.net/DTD/sodipodi-0.dtd"
   xmlns:inkscape="http://www.inkscape.org/namespaces/inkscape"
   version="1.1"
   id="Capa_1"
   x="0px"
   y="0px"
   width="100"
   height="50"
   viewBox="0 0 99.999997 49.999999"
   xml:space="preserve"
   inkscape:version="0.91 r13725"
   sodipodi:docname="log_on.svg"><metadata
     id="metadata4261"><rdf:RDF><cc:Work
         rdf:about=""><dc:format>image/svg+xml</dc:format><dc:type
           rdf:resource="http://purl.org/dc/dcmitype/StillImage" /><dc:title /></cc:Work></rdf:RDF></metadata><defs
     id="defs4259" /><sodipodi:namedview
     pagecolor="#ffffff"
     bordercolor="#666666"
     borderopacity="1"
     objecttolerance="10"
     gridtolerance="10"
     guidetolerance="10"
     inkscape:pageopacity="0"
     inkscape:pageshadow="2"
     inkscape:window-width="1920"
     inkscape:window-height="1056"
     id="namedview4257"
     showgrid="false"
     inkscape:zoom="9.4815507"
     inkscape:cx="42.263744"
     inkscape:cy="38.728608"
     inkscape:window-x="1920"
     inkscape:window-y="24"
     inkscape:window-maximized="1"
     inkscape:current-layer="g4221" /><g
     id="g4221"
     transform="translate(0,-498.29102)"><path
       d="m 91.597828,501.63468 c -25.750615,-0.015 -55.289226,-10e-4 -82.9338454,-10e-4 -3.3186464,0 -6.0095924,2.68997 -6.0095924,6.00979 l 0,31.25099 c 0,3.31807 2.690946,6.0094 6.0095924,6.0094 30.3165844,0 77.4803584,1.9e-4 82.9336384,1.9e-4 3.317676,0 6.009006,-2.69152 6.009006,-6.00939 l 0,-31.25001 c 2e-4,-3.32081 -2.691136,-6.00921 -6.008799,-6.00921 z m -76.155158,-3.9e-4 c -12.6137866,45.91073 -6.3068994,22.95536 0,0 z m 43.227737,20.98332 c 0,9.34135 -5.665627,15.00756 -13.993055,15.00756 -8.454341,0 -13.401134,-6.38289 -13.401134,-14.5003 0,-8.54137 5.453268,-14.92407 13.86556,-14.92407 8.751963,0 13.528629,6.55302 13.528629,14.41681 z m -46.083522,14.54157 0,-28.49238 6.467371,0 0,23.08234 11.330854,0 0,5.40887 -17.798225,0 z m 74.117333,-1.30978 c -1.987163,0.67542 -5.749508,1.60524 -9.51167,1.60524 -5.19943,0 -8.962563,-1.30977 -11.584279,-3.84525 -2.61957,-2.4512 -4.057638,-6.17307 -4.014412,-10.35761 0.04184,-9.47159 6.931797,-14.88281 16.275293,-14.88281 3.679046,0 6.510198,0.72119 7.906217,1.39602 l -1.353193,5.15662 c -1.564193,-0.67601 -3.508531,-1.2257 -6.637305,-1.2257 -5.367604,0 -9.427195,3.04411 -9.427195,9.21698 0,5.87604 3.677675,9.34154 8.962175,9.34154 1.479136,0 2.66396,-0.1666 3.169841,-0.42082 l 0,-5.96187 -4.395539,0 0,-5.0301 10.610067,0 z"
       id="path4223"
       inkscape:connector-curvature="0"
       sodipodi:nodetypes="ccssccsccccssssscccccccccsccsccssscccccc"
       style="fill:#384547;fill-opacity:1;stroke:#384547;stroke-opacity:1" /><path
       d="m 38.082485,522.99756 c 0,5.57998 2.621716,9.51148 6.932574,9.51148 4.354471,0 6.848304,-4.14289 6.848304,-9.67965 0,-5.11418 -2.451977,-9.51441 -6.890536,-9.51441 -4.353889,-2e-4 -6.890342,4.14406 -6.890342,9.68258 z"
       id="path4225"
       inkscape:connector-curvature="0"
       style="fill:#384547;fill-opacity:1;stroke:#384547;stroke-opacity:1" /><path
       style="fill:#ed7161;fill-opacity:1;stroke:#000000;stroke-width:0.11666749;stroke-opacity:0"
       d="m 42.061384,537.34378 c -4.731632,-0.85771 -8.318695,-4.01688 -9.869341,-8.69204 -1.37295,-4.13939 -1.058044,-9.32365 0.788962,-12.98847 1.925562,-3.8207 5.02729,-6.22581 9.169645,-7.11025 1.350367,-0.28833 4.249694,-0.33889 5.600036,-0.0976 2.727793,0.48728 5.115222,1.71523 6.918347,3.55839 2.410195,2.46371 3.736778,5.84535 3.895298,9.92962 0.321224,8.2769 -4.012181,14.23453 -11.201952,15.40063 -1.30919,0.21234 -4.129051,0.21222 -5.300995,-1.9e-4 l 0,10e-6 z m 4.942318,-5.11441 c 2.346192,-0.84098 3.946989,-3.01553 4.583749,-6.22662 0.829847,-4.18486 -0.0024,-8.36035 -2.141414,-10.73904 -2.59604,-2.88742 -7.16646,-2.59848 -9.44688,0.59724 -1.41295,1.98008 -2.012209,4.42503 -1.901038,7.75614 0.04839,1.452 0.123359,2.0652 0.365493,2.99199 0.916226,3.50702 2.969126,5.59165 5.787058,5.87648 0.903661,0.0913 2.09199,-0.0193 2.753032,-0.25619 z"
       id="path4970"
       inkscape:connector-curvature="0" /><path
       style="fill:#ed7161;fill-opacity:1;stroke:#384547;stroke-width:0.11666749;stroke-opacity:1"
       d="m 74.539467,537.28197 c -3.935685,-0.45023 -6.631458,-1.5985 -8.947402,-3.81115 -1.857012,-1.77417 -3.004724,-3.93613 -3.627657,-6.83349 -0.332128,-1.54472 -0.36479,-4.70469 -0.06549,-6.33412 0.97095,-5.28583 4.333647,-9.13028 9.497601,-10.85824 2.039158,-0.68234 3.192546,-0.86658 5.871036,-0.93782 2.586095,-0.0688 4.421275,0.0946 6.219658,0.55374 1.066753,0.27234 2.179838,0.67366 2.181705,0.7866 0.0024,0.18294 -1.210003,4.75385 -1.28406,4.83857 -0.04463,0.0511 -0.478373,-0.0406 -0.963951,-0.20363 -1.263903,-0.42428 -2.286023,-0.61847 -4.037784,-0.76717 -5.410709,-0.45929 -9.188105,1.58738 -10.556616,5.71975 -0.38758,1.17037 -0.593243,2.91838 -0.499259,4.24355 0.30724,4.33202 2.570994,7.28882 6.373618,8.32491 0.947311,0.25812 4.541978,0.29553 5.337538,0.0555 l 0.495838,-0.14957 0,-3.02885 0,-3.02886 -2.216684,0 -2.216683,0 0,-2.45002 0,-2.45002 5.25003,0 5.250043,0 0,7.4508 0,7.45079 -1.079173,0.30523 c -1.304084,0.36884 -3.005293,0.72606 -4.579201,0.96155 -1.418093,0.21216 -5.140947,0.3063 -6.403127,0.16191 z"
       id="path4980"
       inkscape:connector-curvature="0" /><text
       xml:space="preserve"
       style="font-style:normal;font-weight:normal;font-size:7.82193613px;line-height:125%;font-family:sans-serif;letter-spacing:0px;word-spacing:0px;fill:#000000;fill-opacity:1;stroke:none;stroke-width:1px;stroke-linecap:butt;stroke-linejoin:miter;stroke-opacity:1"
       x="6.2053962"
       y="481.24976"
       id="text4229"
       sodipodi:linespacing="125%"><tspan
         sodipodi:role="line"
         id="tspan4231"
         x="6.2053962"
         y="481.24976" /></text>
</g><g
     id="g4227"
     transform="translate(0,-498.29102)" /><g
     id="g4229"
     transform="translate(0,-498.29102)" /><g
     id="g4231"
     transform="translate(0,-498.29102)" /><g
     id="g4233"
     transform="translate(0,-498.29102)" /><g
     id="g4235"
     transform="translate(0,-498.29102)" /><g
     id="g4237"
     transform="translate(0,-498.29102)" /><g
     id="g4239"
     transform="translate(0,-498.29102)" /><g
     id="g4241"
     transform="translate(0,-498.29102)" /><g
     id="g4243"
     transform="translate(0,-498.29102)" /><g
     id="g4245"
     transform="translate(0,-498.29102)" /><g
     id="g4247"
     transform="translate(0,-498.29102)" /><g
     id="g4249"
     transform="translate(0,-498.29102)" /><g
     id="g4251"
     transform="translate(0,-498.29102)" /><g
     id="g4253"
     transform="translate(0,-498.29102)" /><g
     id="g4255"
     transform="translate(0,-498.29102)" /><path
     style="fill:#ed7161;fill-opacity:1"
     d="m 12.657109,24.585686 0,-14.175104 3.150023,0 3.150023,0 0,11.550089 0,11.550077 5.658374,0 5.658374,0 0,2.625027 0,2.625015 -8.808397,0 -8.808397,0 0,-14.175104 z"
     id="path4930"
     inkscape:connector-curvature="0" /><path
     style="fill:#00e000;fill-opacity:0"
     d="m 82.51213,-193.53906 0,-72.48897 16.108659,0 16.108661,0 0,59.06509 0,59.06508 28.93592,0 28.93593,0 0,13.42388 0,13.42388 -45.04459,0 -45.04458,0 0,-72.48896 z"
     id="path4932"
     inkscape:connector-curvature="0" /></svg>