<?xml version="1.0" encoding="UTF-8" standalone="no"?>
<!-- Generator: Adobe Illustrator 16.0.0, SVG Export Plug-In . SVG Version: 6.00 Build 0)  -->

<svg
   xmlns:dc="http://purl.org/dc/elements/1.1/"
   xmlns:cc="http://creativecommons.org/ns#"
   xmlns:rdf="http://www.w3.org/1999/02/22-rdf-syntax-ns#"
   xmlns:svg="http://www.w3.org/2000/svg"
   xmlns="http://www.w3.org/2000/svg"
   xmlns:sodipodi="http://sodipodi.sourceforge.net/DTD/sodipodi-0.dtd"
   xmlns:inkscape="http://www.inkscape.org/namespaces/inkscape"
   version="1.1"
   id="Capa_1"
   x="0px"
   y="0px"
   width="100"
   height="50"
   viewBox="0 0 99.999997 49.999999"
   xml:space="preserve"
   inkscape:version="0.91 r13725"
   sodipodi:docname="log_off.svg"><metadata
     id="metadata4261"><rdf:RDF><cc:Work
         rdf:about=""><dc:format>image/svg+xml</dc:format><dc:type
           rdf:resource="http://purl.org/dc/dcmitype/StillImage" /><dc:title></dc:title></cc:Work></rdf:RDF></metadata><defs
     id="defs4259" /><sodipodi:namedview
     pagecolor="#ffffff"
     bordercolor="#666666"
     borderopacity="1"
     objecttolerance="10"
     gridtolerance="10"
     guidetolerance="10"
     inkscape:pageopacity="0"
     inkscape:pageshadow="2"
     inkscape:window-width="1920"
     inkscape:window-height="1056"
     id="namedview4257"
     showgrid="false"
     inkscape:zoom="9.4815507"
     inkscape:cx="57.873005"
     inkscape:cy="38.728608"
     inkscape:window-x="1920"
     inkscape:window-y="24"
     inkscape:window-maximized="1"
     inkscape:current-layer="g4221" /><g
     id="g4221"
     transform="translate(0,-498.29102)"><path
       d="m 91.597828,501.63468 c -25.750615,-0.015 -55.289226,-10e-4 -82.9338454,-10e-4 -3.3186464,0 -6.0095924,2.68997 -6.0095924,6.00979 l 0,31.25099 c 0,3.31807 2.690946,6.0094 6.0095924,6.0094 30.3165844,0 77.4803584,1.9e-4 82.9336384,1.9e-4 3.317676,0 6.009006,-2.69152 6.009006,-6.00939 l 0,-31.25001 c 2e-4,-3.32081 -2.691136,-6.00921 -6.008799,-6.00921 z m -76.155158,-3.9e-4 c -12.6137866,45.91073 -6.3068994,22.95536 0,0 z m 43.227737,20.98332 c 0,9.34135 -5.665627,15.00756 -13.993055,15.00756 -8.454341,0 -13.401134,-6.38289 -13.401134,-14.5003 0,-8.54137 5.453268,-14.92407 13.86556,-14.92407 8.751963,0 13.528629,6.55302 13.528629,14.41681 z m -46.083522,14.54157 0,-28.49238 6.467371,0 0,23.08234 11.330854,0 0,5.40887 -17.798225,0 z m 74.117333,-1.30978 c -1.987163,0.67542 -5.749508,1.60524 -9.51167,1.60524 -5.19943,0 -8.962563,-1.30977 -11.584279,-3.84525 -2.61957,-2.4512 -4.057638,-6.17307 -4.014412,-10.35761 0.04184,-9.47159 6.931797,-14.88281 16.275293,-14.88281 3.679046,0 6.510198,0.72119 7.906217,1.39602 l -1.353193,5.15662 c -1.564193,-0.67601 -3.508531,-1.2257 -6.637305,-1.2257 -5.367604,0 -9.427195,3.04411 -9.427195,9.21698 0,5.87604 3.677675,9.34154 8.962175,9.34154 1.479136,0 2.66396,-0.1666 3.169841,-0.42082 l 0,-5.96187 -4.395539,0 0,-5.0301 10.610067,0 z"
       id="path4223"
       inkscape:connector-curvature="0"
       sodipodi:nodetypes="ccssccsccccssssscccccccccsccsccssscccccc"
       style="fill:#384547;fill-opacity:1" /><path
       d="m 38.082485,522.99756 c 0,5.57998 2.621716,9.51148 6.932574,9.51148 4.354471,0 6.848304,-4.14289 6.848304,-9.67965 0,-5.11418 -2.451977,-9.51441 -6.890536,-9.51441 -4.353889,-2e-4 -6.890342,4.14406 -6.890342,9.68258 z"
       id="path4225"
       inkscape:connector-curvature="0"
       style="fill:#384547;fill-opacity:1" /><text
       xml:space="preserve"
       style="font-style:normal;font-weight:normal;font-size:7.82193613px;line-height:125%;font-family:sans-serif;letter-spacing:0px;word-spacing:0px;fill:#000000;fill-opacity:1;stroke:none;stroke-width:1px;stroke-linecap:butt;stroke-linejoin:miter;stroke-opacity:1"
       x="6.2053962"
       y="481.24976"
       id="text4229"
       sodipodi:linespacing="125%"><tspan
         sodipodi:role="line"
         id="tspan4231"
         x="6.2053962"
         y="481.24976" /></text>
</g><g
     id="g4227"
     transform="translate(0,-498.29102)" /><g
     id="g4229"
     transform="translate(0,-498.29102)" /><g
     id="g4231"
     transform="translate(0,-498.29102)" /><g
     id="g4233"
     transform="translate(0,-498.29102)" /><g
     id="g4235"
     transform="translate(0,-498.29102)" /><g
     id="g4237"
     transform="translate(0,-498.29102)" /><g
     id="g4239"
     transform="translate(0,-498.29102)" /><g
     id="g4241"
     transform="translate(0,-498.29102)" /><g
     id="g4243"
     transform="translate(0,-498.29102)" /><g
     id="g4245"
     transform="translate(0,-498.29102)" /><g
     id="g4247"
     transform="translate(0,-498.29102)" /><g
     id="g4249"
     transform="translate(0,-498.29102)" /><g
     id="g4251"
     transform="translate(0,-498.29102)" /><g
     id="g4253"
     transform="translate(0,-498.29102)" /><g
     id="g4255"
     transform="translate(0,-498.29102)" /><path
     style="fill:#00e000;fill-opacity:0"
     d="m 82.51213,-193.53906 0,-72.48897 16.108659,0 16.108661,0 0,59.06509 0,59.06508 28.93592,0 28.93593,0 0,13.42388 0,13.42388 -45.04459,0 -45.04458,0 0,-72.48896 z"
     id="path4932"
     inkscape:connector-curvature="0" /></svg>