<?xml version="1.0" encoding="UTF-8" standalone="no"?>
<!-- Generator: Adobe Illustrator 16.0.0, SVG Export Plug-In . SVG Version: 6.00 Build 0)  -->

<svg
   xmlns:dc="http://purl.org/dc/elements/1.1/"
   xmlns:cc="http://creativecommons.org/ns#"
   xmlns:rdf="http://www.w3.org/1999/02/22-rdf-syntax-ns#"
   xmlns:svg="http://www.w3.org/2000/svg"
   xmlns="http://www.w3.org/2000/svg"
   xmlns:sodipodi="http://sodipodi.sourceforge.net/DTD/sodipodi-0.dtd"
   xmlns:inkscape="http://www.inkscape.org/namespaces/inkscape"
   version="1.1"
   id="Capa_1"
   x="0px"
   y="0px"
   width="100"
   height="50"
   viewBox="0 0 99.999997 49.999999"
   xml:space="preserve"
   inkscape:version="0.91 r13725"
   sodipodi:docname="log_off.svg"><metadata
     id="metadata4261"><rdf:RDF><cc:Work
         rdf:about=""><dc:format>image/svg+xml</dc:format><dc:type
           rdf:resource="http://purl.org/dc/dcmitype/StillImage" /><dc:title></dc:title></cc:Work></rdf:RDF></metadata><defs
     id="defs4259" /><sodipodi:namedview
     pagecolor="#ffffff"
     bordercolor="#666666"
     borderopacity="1"
     objecttolerance="10"
     gridtolerance="10"
     guidetolerance="10"
     inkscape:pageopacity="0"
     inkscape:pageshadow="2"
     inkscape:window-width="1920"
     inkscape:window-height="1056"
     id="namedview4257"
     showgrid="false"
     inkscape:zoom="9.4815507"
     inkscape:cx="50.107509"
     inkscape:cy="33.452057"
     inkscape:window-x="1920"
     inkscape:window-y="24"
     inkscape:window-maximized="1"
     inkscape:current-layer="g4221"
     inkscape:showpageshadow="true" /><g
     id="g4221"
     transform="translate(0,-498.29102)"><path
       d="m 80.701885,507.31849 c -18.984389,-0.0111 -40.761442,-7.3e-4 -61.142168,-7.3e-4 -2.44664,0 -4.430514,1.98315 -4.430514,4.43066 l 0,23.03948 c 0,2.44622 1.983874,4.43037 4.430514,4.43037 22.350606,0 57.121638,1.4e-4 61.142016,1.4e-4 2.445924,0 4.430081,-1.98429 4.430081,-4.43036 l 0,-23.03877 c 1.47e-4,-2.44823 -1.984014,-4.43023 -4.429929,-4.43023 z m -24.27542,15.46946 c 0,6.88682 -4.176928,11.06418 -10.316243,11.06418 -6.23288,0 -9.879855,-4.70572 -9.879855,-10.6902 0,-6.29705 4.020368,-11.00263 10.222249,-11.00263 6.452299,0 9.973849,4.83115 9.973849,10.62865 z m -33.974627,10.72063 0,-21.00572 4.768006,0 0,17.01723 8.353562,0 0,3.98763 -13.121568,0 z m 54.642281,-0.96562 c -1.465016,0.49795 -4.238769,1.18345 -7.012386,1.18345 -3.833229,0 -6.607562,-0.96562 -8.540397,-2.83487 -1.931252,-1.80713 -2.991454,-4.55104 -2.959586,-7.63605 0.03085,-6.98284 5.1104,-10.97221 11.998801,-10.97221 2.712341,0 4.79958,0.53169 5.828782,1.0292 l -0.997629,3.80167 c -1.153186,-0.49838 -2.58663,-0.90363 -4.893288,-0.90363 -3.957214,0 -6.950107,2.24424 -6.950107,6.79513 0,4.33205 2.71133,6.88696 6.607276,6.88696 1.090478,0 1.963978,-0.12283 2.336934,-0.31025 l 0,-4.39533 -3.240568,0 0,-3.70839 7.822168,0 z"
       id="path4223"
       inkscape:connector-curvature="0"
       sodipodi:nodetypes="ccssccsccccsssccccccccccccsccsssccccccc"
       style="fill:#384547;fill-opacity:1;stroke:#384547;stroke-width:0.73724025;stroke-opacity:1" /><path
       d="m 41.248221,523.06807 c 0,4.11378 1.932834,7.01224 5.110972,7.01224 3.210292,0 5.048846,-3.0543 5.048846,-7.13622 0,-3.77038 -1.807697,-7.01441 -5.079981,-7.01441 -3.209862,-1.5e-4 -5.079837,3.05517 -5.079837,7.13839 z"
       id="path4225"
       inkscape:connector-curvature="0"
       style="fill:#384547;fill-opacity:1;stroke:#384547;stroke-width:0.73724025;stroke-opacity:1" /><text
       xml:space="preserve"
       style="font-style:normal;font-weight:normal;font-size:5.76664591px;line-height:125%;font-family:sans-serif;letter-spacing:0px;word-spacing:0px;fill:#000000;fill-opacity:1;stroke:none;stroke-width:1px;stroke-linecap:butt;stroke-linejoin:miter;stroke-opacity:1"
       x="17.747149"
       y="492.28992"
       id="text4229"
       sodipodi:linespacing="125%"><tspan
         sodipodi:role="line"
         id="tspan4231"
         x="17.747149"
         y="492.28992" /></text>
</g><g
     id="g4227"
     transform="translate(0,-498.29102)" /><g
     id="g4229"
     transform="translate(0,-498.29102)" /><g
     id="g4231"
     transform="translate(0,-498.29102)" /><g
     id="g4233"
     transform="translate(0,-498.29102)" /><g
     id="g4235"
     transform="translate(0,-498.29102)" /><g
     id="g4237"
     transform="translate(0,-498.29102)" /><g
     id="g4239"
     transform="translate(0,-498.29102)" /><g
     id="g4241"
     transform="translate(0,-498.29102)" /><g
     id="g4243"
     transform="translate(0,-498.29102)" /><g
     id="g4245"
     transform="translate(0,-498.29102)" /><g
     id="g4247"
     transform="translate(0,-498.29102)" /><g
     id="g4249"
     transform="translate(0,-498.29102)" /><g
     id="g4251"
     transform="translate(0,-498.29102)" /><g
     id="g4253"
     transform="translate(0,-498.29102)" /><g
     id="g4255"
     transform="translate(0,-498.29102)" /><path
     style="fill:#00e000;fill-opacity:0"
     d="m 82.51213,-193.53906 0,-72.48897 16.108659,0 16.108661,0 0,59.06509 0,59.06508 28.93592,0 28.93593,0 0,13.42388 0,13.42388 -45.04459,0 -45.04458,0 0,-72.48896 z"
     id="path4932"
     inkscape:connector-curvature="0" /></svg>