<?xml version="1.0" encoding="UTF-8" standalone="no"?>
<!-- Generator: Adobe Illustrator 16.0.0, SVG Export Plug-In . SVG Version: 6.00 Build 0)  -->

<svg
   xmlns:dc="http://purl.org/dc/elements/1.1/"
   xmlns:cc="http://creativecommons.org/ns#"
   xmlns:rdf="http://www.w3.org/1999/02/22-rdf-syntax-ns#"
   xmlns:svg="http://www.w3.org/2000/svg"
   xmlns="http://www.w3.org/2000/svg"
   xmlns:sodipodi="http://sodipodi.sourceforge.net/DTD/sodipodi-0.dtd"
   xmlns:inkscape="http://www.inkscape.org/namespaces/inkscape"
   version="1.1"
   id="Capa_1"
   x="0px"
   y="0px"
   width="100"
   height="50"
   viewBox="0 0 99.999997 49.999999"
   xml:space="preserve"
   inkscape:version="0.91 r13725"
   sodipodi:docname="log_on.svg"><metadata
     id="metadata4261"><rdf:RDF><cc:Work
         rdf:about=""><dc:format>image/svg+xml</dc:format><dc:type
           rdf:resource="http://purl.org/dc/dcmitype/StillImage" /><dc:title></dc:title></cc:Work></rdf:RDF></metadata><defs
     id="defs4259" /><sodipodi:namedview
     pagecolor="#ffffff"
     bordercolor="#666666"
     borderopacity="1"
     objecttolerance="10"
     gridtolerance="10"
     guidetolerance="10"
     inkscape:pageopacity="0"
     inkscape:pageshadow="2"
     inkscape:window-width="1920"
     inkscape:window-height="1056"
     id="namedview4257"
     showgrid="false"
     inkscape:zoom="9.4815507"
     inkscape:cx="50.107509"
     inkscape:cy="33.452057"
     inkscape:window-x="1920"
     inkscape:window-y="24"
     inkscape:window-maximized="1"
     inkscape:current-layer="g4221"
     inkscape:showpageshadow="true" /><g
     id="g4221"
     transform="translate(0,-498.29102)"><path
       d="m 80.701885,507.31849 c -18.984389,-0.0111 -40.761442,-7.3e-4 -61.142168,-7.3e-4 -2.44664,0 -4.430514,1.98315 -4.430514,4.43066 l 0,23.03948 c 0,2.44622 1.983874,4.43037 4.430514,4.43037 22.350606,0 57.121638,1.4e-4 61.142016,1.4e-4 2.445924,0 4.430081,-1.98429 4.430081,-4.43036 l 0,-23.03877 c 1.47e-4,-2.44823 -1.984014,-4.43023 -4.429929,-4.43023 z m -56.144647,-2.8e-4 c -9.299391,33.84723 -4.6497,16.92361 0,0 z m 31.869227,15.46974 c 0,6.88682 -4.176928,11.06418 -10.316243,11.06418 -6.23288,0 -9.879855,-4.70572 -9.879855,-10.6902 0,-6.29705 4.020368,-11.00263 10.222249,-11.00263 6.452299,0 9.973849,4.83115 9.973849,10.62865 z m -33.974627,10.72063 0,-21.00572 4.768006,0 0,17.01723 8.353562,0 0,3.98763 -13.121568,0 z m 54.642281,-0.96562 c -1.465016,0.49795 -4.238769,1.18345 -7.012386,1.18345 -3.833229,0 -6.607562,-0.96562 -8.540397,-2.83487 -1.931252,-1.80713 -2.991454,-4.55104 -2.959586,-7.63605 0.03085,-6.98284 5.1104,-10.97221 11.998801,-10.97221 2.712341,0 4.79958,0.53169 5.828782,1.0292 l -0.997629,3.80167 c -1.153186,-0.49838 -2.58663,-0.90363 -4.893288,-0.90363 -3.957214,0 -6.950107,2.24424 -6.950107,6.79513 0,4.33205 2.71133,6.88696 6.607276,6.88696 1.090478,0 1.963978,-0.12283 2.336934,-0.31025 l 0,-4.39533 -3.240568,0 0,-3.70839 7.822168,0 z"
       id="path4223"
       inkscape:connector-curvature="0"
       sodipodi:nodetypes="ccssccsccccssssscccccccccsccsccssscccccc"
       style="fill:#384547;fill-opacity:1;stroke:#384547;stroke-width:0.73724025;stroke-opacity:1" /><path
       d="m 41.248221,523.06807 c 0,4.11378 1.932834,7.01224 5.110972,7.01224 3.210292,0 5.048846,-3.0543 5.048846,-7.13622 0,-3.77038 -1.807697,-7.01441 -5.079981,-7.01441 -3.209862,-1.5e-4 -5.079837,3.05517 -5.079837,7.13839 z"
       id="path4225"
       inkscape:connector-curvature="0"
       style="fill:#384547;fill-opacity:1;stroke:#384547;stroke-width:0.73724025;stroke-opacity:1" /><path
       style="fill:#ed7161;fill-opacity:1;stroke:#000000;stroke-width:0.08601197;stroke-opacity:0"
       d="m 44.181625,533.64468 c -3.488349,-0.63234 -6.132877,-2.96141 -7.276075,-6.40812 -1.012194,-3.05173 -0.780033,-6.87377 0.581654,-9.57563 1.419602,-2.81677 3.706321,-4.58991 6.760232,-5.24196 0.995545,-0.21257 3.133045,-0.24984 4.128572,-0.0719 2.011038,0.35924 3.771147,1.26453 5.100483,2.62339 1.776893,1.81634 2.754904,4.30942 2.871771,7.32051 0.236819,6.10206 -2.957941,10.49427 -8.25853,11.35397 -0.965188,0.15654 -3.044103,0.15645 -3.908107,-1.4e-4 l 0,0 z m 3.643676,-3.77055 c 1.729707,-0.62 2.909879,-2.22317 3.379324,-4.59051 0.611797,-3.08525 -0.0018,-6.16359 -1.578736,-7.91726 -1.913906,-2.12872 -5.283403,-1.9157 -6.964621,0.44031 -1.041683,1.4598 -1.483481,3.26231 -1.401521,5.71814 0.03568,1.07047 0.09095,1.52255 0.269456,2.20582 0.675479,2.58551 2.188959,4.12239 4.266452,4.33237 0.666215,0.0673 1.542299,-0.0142 2.029646,-0.18887 z"
       id="path4970"
       inkscape:connector-curvature="0" /><path
       style="fill:#ed7161;fill-opacity:1;stroke:#384547;stroke-width:0.08601197;stroke-opacity:1"
       d="m 68.125775,533.59911 c -2.901545,-0.33193 -4.888978,-1.17848 -6.596385,-2.80973 -1.369064,-1.30799 -2.215203,-2.90188 -2.674454,-5.03793 -0.244859,-1.13883 -0.268938,-3.46848 -0.04828,-4.66977 0.715823,-3.89692 3.194939,-6.7312 7.002013,-8.00513 1.50335,-0.50305 2.353674,-0.63887 4.328364,-0.6914 1.906574,-0.0507 3.259542,0.0697 4.585383,0.40824 0.786453,0.20078 1.607064,0.49665 1.60844,0.57992 0.0018,0.13487 -0.892063,3.50473 -0.94666,3.56719 -0.0329,0.0377 -0.352676,-0.0299 -0.710664,-0.15013 -0.9318,-0.31279 -1.685348,-0.45596 -2.976817,-0.56559 -3.988992,-0.3386 -6.773841,1.17028 -7.782762,4.21683 -0.28574,0.86285 -0.437363,2.15155 -0.368074,3.12852 0.22651,3.19374 1.89544,5.37361 4.698888,6.13746 0.698396,0.19029 3.348529,0.21787 3.935048,0.0409 l 0.365551,-0.11026 0,-2.23299 0,-2.233 -1.634228,0 -1.634228,0 0,-1.80626 0,-1.80625 3.870533,0 3.870543,0 0,5.49303 0,5.49302 -0.795609,0.22503 c -0.961424,0.27192 -2.215623,0.53528 -3.375972,0.70889 -1.045475,0.15642 -3.790113,0.22582 -4.720643,0.11937 z"
       id="path4980"
       inkscape:connector-curvature="0" /><text
       xml:space="preserve"
       style="font-style:normal;font-weight:normal;font-size:5.76664591px;line-height:125%;font-family:sans-serif;letter-spacing:0px;word-spacing:0px;fill:#000000;fill-opacity:1;stroke:none;stroke-width:1px;stroke-linecap:butt;stroke-linejoin:miter;stroke-opacity:1"
       x="17.747149"
       y="492.28992"
       id="text4229"
       sodipodi:linespacing="125%"><tspan
         sodipodi:role="line"
         id="tspan4231"
         x="17.747149"
         y="492.28992" /></text>
</g><g
     id="g4227"
     transform="translate(0,-498.29102)" /><g
     id="g4229"
     transform="translate(0,-498.29102)" /><g
     id="g4231"
     transform="translate(0,-498.29102)" /><g
     id="g4233"
     transform="translate(0,-498.29102)" /><g
     id="g4235"
     transform="translate(0,-498.29102)" /><g
     id="g4237"
     transform="translate(0,-498.29102)" /><g
     id="g4239"
     transform="translate(0,-498.29102)" /><g
     id="g4241"
     transform="translate(0,-498.29102)" /><g
     id="g4243"
     transform="translate(0,-498.29102)" /><g
     id="g4245"
     transform="translate(0,-498.29102)" /><g
     id="g4247"
     transform="translate(0,-498.29102)" /><g
     id="g4249"
     transform="translate(0,-498.29102)" /><g
     id="g4251"
     transform="translate(0,-498.29102)" /><g
     id="g4253"
     transform="translate(0,-498.29102)" /><g
     id="g4255"
     transform="translate(0,-498.29102)" /><path
     style="fill:#ed7161;fill-opacity:1"
     d="m 22.50361,24.68795 0,-10.450457 2.322324,0 2.322324,0 0,8.51519 0,8.515182 4.171581,0 4.171581,0 0,1.935275 0,1.935267 -6.493905,0 -6.493905,0 0,-10.450457 z"
     id="path4930"
     inkscape:connector-curvature="0" /><path
     style="fill:#00e000;fill-opacity:0"
     d="m 82.51213,-193.53906 0,-72.48897 16.108659,0 16.108661,0 0,59.06509 0,59.06508 28.93592,0 28.93593,0 0,13.42388 0,13.42388 -45.04459,0 -45.04458,0 0,-72.48896 z"
     id="path4932"
     inkscape:connector-curvature="0" /></svg>