<?xml version="1.0" encoding="UTF-8" standalone="no"?>
<!-- Svg Vector Icons : http://www.onlinewebfonts.com/icon -->

<svg
   xmlns:dc="http://purl.org/dc/elements/1.1/"
   xmlns:cc="http://creativecommons.org/ns#"
   xmlns:rdf="http://www.w3.org/1999/02/22-rdf-syntax-ns#"
   xmlns:svg="http://www.w3.org/2000/svg"
   xmlns="http://www.w3.org/2000/svg"
   xmlns:sodipodi="http://sodipodi.sourceforge.net/DTD/sodipodi-0.dtd"
   xmlns:inkscape="http://www.inkscape.org/namespaces/inkscape"
   version="1.1"
   x="0px"
   y="0px"
   viewBox="0 0 1000 1000"
   enable-background="new 0 0 1000 1000"
   xml:space="preserve"
   id="svg4189"
   inkscape:version="0.91 r13725"
   sodipodi:docname="log_lock_off.svg"><defs
     id="defs4199" /><sodipodi:namedview
     pagecolor="#ffffff"
     bordercolor="#666666"
     borderopacity="1"
     objecttolerance="10"
     gridtolerance="10"
     guidetolerance="10"
     inkscape:pageopacity="0"
     inkscape:pageshadow="2"
     inkscape:window-width="1920"
     inkscape:window-height="1056"
     id="namedview4197"
     showgrid="false"
     inkscape:zoom="0.919"
     inkscape:cx="500"
     inkscape:cy="500"
     inkscape:window-x="0"
     inkscape:window-y="24"
     inkscape:window-maximized="1"
     inkscape:current-layer="svg4189" /><metadata
     id="metadata4191"> Svg Vector Icons : http://www.onlinewebfonts.com/icon <rdf:RDF><cc:Work
     rdf:about=""><dc:format>image/svg+xml</dc:format><dc:type
       rdf:resource="http://purl.org/dc/dcmitype/StillImage" /><dc:title></dc:title></cc:Work></rdf:RDF></metadata><g
     id="g4193"
     style="fill:#38454f;fill-opacity:1" /><path
     style="fill:#ed7161;fill-opacity:0.44654089;stroke:#384547;stroke-width:0.81194693;stroke-miterlimit:4;stroke-dasharray:none;stroke-opacity:0.50314468"
     d="M 487.96715,806.78484 C 476.67316,804.60537 463.48082,798.93602 455.34067,792.76373 445.92082,785.62109 49.078629,405.14078 40.730824,395.24829 29.136766,381.50891 23.200478,359.06054 26.329968,340.7907 c 7.176767,-41.89766 50.293882,-69.16629 92.133862,-58.26836 20.89719,5.44304 17.95682,2.82847 204.48401,181.82569 l 176.81036,169.67263 10.74937,-10.05372 c 5.91218,-5.52957 84.72517,-81.11301 175.13999,-167.96326 90.41482,-86.85024 167.60867,-160.12364 171.54193,-162.82978 22.8739,-15.73766 53.19338,-17.35451 78.903,-4.2077 36.6334,18.7328 49.54827,64.54817 28.05637,99.52968 -5.27747,8.58994 -411.70166,399.69538 -422.51392,406.58874 -3.97554,2.5346 -11.21189,6.09883 -16.08082,7.92054 -8.70215,3.25588 -29.47611,5.34488 -37.58697,3.77968 z"
     id="path4851"
     inkscape:connector-curvature="0" /></svg>