<?xml version="1.0" encoding="UTF-8" standalone="no"?>
<!-- Generator: Adobe Illustrator 18.0.0, SVG Export Plug-In . SVG Version: 6.00 Build 0)  -->

<svg
   xmlns:dc="http://purl.org/dc/elements/1.1/"
   xmlns:cc="http://creativecommons.org/ns#"
   xmlns:rdf="http://www.w3.org/1999/02/22-rdf-syntax-ns#"
   xmlns:svg="http://www.w3.org/2000/svg"
   xmlns="http://www.w3.org/2000/svg"
   xmlns:sodipodi="http://sodipodi.sourceforge.net/DTD/sodipodi-0.dtd"
   xmlns:inkscape="http://www.inkscape.org/namespaces/inkscape"
   version="1.1"
   id="Capa_1"
   x="0px"
   y="0px"
   viewBox="0 0 301.356 301.356"
   style="enable-background:new 0 0 301.356 301.356;"
   xml:space="preserve"
   inkscape:version="0.91 r13725"
   sodipodi:docname="magic_hat.svg"><metadata
     id="metadata4299"><rdf:RDF><cc:Work
         rdf:about=""><dc:format>image/svg+xml</dc:format><dc:type
           rdf:resource="http://purl.org/dc/dcmitype/StillImage" /></cc:Work></rdf:RDF></metadata><defs
     id="defs4297" /><sodipodi:namedview
     pagecolor="#ffffff"
     bordercolor="#666666"
     borderopacity="1"
     objecttolerance="10"
     gridtolerance="10"
     guidetolerance="10"
     inkscape:pageopacity="0"
     inkscape:pageshadow="2"
     inkscape:window-width="1380"
     inkscape:window-height="848"
     id="namedview4295"
     showgrid="false"
     inkscape:zoom="0.94074786"
     inkscape:cx="-97.680187"
     inkscape:cy="70.151232"
     inkscape:window-x="384"
     inkscape:window-y="137"
     inkscape:window-maximized="0"
     inkscape:current-layer="g4251" /><g
     id="g4251"><path
       d="M162.751,131.804H15c-8.284,0-15,6.716-15,15c0,8.284,6.716,15,15,15h8.648v14.673h130.456v-14.673h8.648   c8.284,0,15-6.716,15-15C177.751,138.52,171.035,131.804,162.751,131.804z"
       id="path4253" /><path
       d="M23.648,271.398h0.003c0,0-0.003,0.018-0.003,0.027c0,10.731,29.204,19.43,65.228,19.43   c36.024,0,65.228-8.699,65.228-19.43c0-0.009-0.002-0.018-0.002-0.018l0.002-0.009v-59.92H23.648V271.398z"
       id="path4255" /><path
       d="M300.485,20.481c-2.774-7.806-11.351-11.884-19.158-9.109l-174.422,62C99.1,76.146,95.021,84.723,97.796,92.53   c2.773,7.8,11.344,11.884,19.158,9.109l174.422-62C299.182,36.865,303.26,28.288,300.485,20.481z"
       id="path4257" /><path
       d="m 34.792837,27.606066 4.499125,2.460542 c 0.189906,0.103673 0.3459,0.259668 0.449573,0.449574 l 2.460542,4.499125 c 0.428742,0.784331 1.555582,0.784331 1.984808,0 l 2.460543,-4.499125 c 0.103673,-0.189906 0.259667,-0.345901 0.449573,-0.449574 l 4.499125,-2.460542 c 0.784331,-0.428742 0.784331,-1.555582 0,-1.984324 L 47.097001,23.1612 c -0.189906,-0.103673 -0.3459,-0.259668 -0.449573,-0.449574 l -2.460543,-4.499125 c -0.428741,-0.784331 -1.555582,-0.784331 -1.984808,0 l -2.460542,4.499125 c -0.103673,0.189906 -0.259667,0.345901 -0.449573,0.449574 l -4.499125,2.460058 c -0.784332,0.429226 -0.784332,1.555582 0,1.984808 z"
       id="path4259"
       inkscape:connector-curvature="0" /><path
       d="m 91.850639,33.296097 2.076,1.136 c 0.392,0.214 0.714,0.536 0.928,0.928 l 1.136,2.076 c 0.885,1.619 3.211,1.619 4.096001,0 l 1.136,-2.076 c 0.214,-0.392 0.536,-0.714 0.928,-0.928 l 2.077,-1.136 c 1.619,-0.885 1.619,-3.211 0,-4.096 l -2.077,-1.136 c -0.392,-0.214 -0.714,-0.536 -0.928,-0.928 l -1.136,-2.077 c -0.885001,-1.619 -3.211001,-1.619 -4.096001,0 l -1.136,2.077 c -0.214,0.392 -0.536,0.714 -0.928,0.928 l -2.076,1.136 c -1.619,0.886 -1.619,3.211 0,4.096 z"
       id="path4261"
       inkscape:connector-curvature="0" /><path
       d="m 28.420285,97.874765 -5.371164,2.937785 c -1.340927,0.73382 -1.340927,2.65949 0,3.39331 l 5.371164,2.93779 c 0.324671,0.17724 0.591366,0.44393 0.76861,0.76861 l 2.937782,5.37116 c 0.733825,1.34093 2.659492,1.34093 3.393317,0 l 2.937782,-5.37116 c 0.177244,-0.32468 0.443938,-0.59137 0.76861,-0.76861 l 5.371163,-2.93779 c 1.340928,-0.73382 1.340928,-2.65949 0,-3.39331 l -5.371163,-2.937785 c -0.324672,-0.177244 -0.591366,-0.443939 -0.76861,-0.76861 l -2.937782,-5.371164 c -0.733825,-1.340927 -2.659492,-1.340927 -3.393317,0 l -2.937782,5.371164 c -0.178072,0.324671 -0.444767,0.591366 -0.76861,0.76861 z"
       id="path4263"
       inkscape:connector-curvature="0" /><path
       d="m 61.125357,78.734282 4.499125,2.460542 c 0.189906,0.103673 0.3459,0.259668 0.449573,0.449574 l 2.460542,4.499125 c 0.428742,0.784331 1.555582,0.784331 1.984808,0 l 2.460543,-4.499125 c 0.103673,-0.189906 0.259667,-0.345901 0.449573,-0.449574 l 4.499125,-2.460542 c 0.784331,-0.428742 0.784331,-1.555582 0,-1.984324 l -4.499125,-2.460542 c -0.189906,-0.103673 -0.3459,-0.259668 -0.449573,-0.449574 l -2.460543,-4.499125 c -0.428741,-0.784331 -1.555582,-0.784331 -1.984808,0 l -2.460542,4.499125 c -0.103673,0.189906 -0.259667,0.345901 -0.449573,0.449574 l -4.499125,2.460058 c -0.784332,0.429226 -0.784332,1.555582 0,1.984808 z"
       id="path4259-5"
       inkscape:connector-curvature="0" /></g><g
     id="g4265" /><g
     id="g4267" /><g
     id="g4269" /><g
     id="g4271" /><g
     id="g4273" /><g
     id="g4275" /><g
     id="g4277" /><g
     id="g4279" /><g
     id="g4281" /><g
     id="g4283" /><g
     id="g4285" /><g
     id="g4287" /><g
     id="g4289" /><g
     id="g4291" /><g
     id="g4293" /></svg>